<svg width="39" height="39" viewBox="0 0 39 39" fill="none" xmlns="http://www.w3.org/2000/svg">
<circle cx="19.5" cy="19.5" r="19.5" fill="#F8FAFC"/>
<path d="M15.6873 26.5194C16.3921 27.4408 17.0336 28.4114 17.6071 29.4242C18.0968 30.3766 18.3009 31.0225 18.6588 32.1701C18.8783 32.8042 19.0766 32.9934 19.5031 32.9934C19.9678 32.9934 20.1786 32.6715 20.3415 32.1736C20.6798 31.0898 20.9452 30.2627 21.364 29.4811C22.1857 27.9723 23.2068 26.6315 24.21 25.3428C24.4816 24.9781 26.2377 22.8534 27.0282 21.1769C27.0282 21.1769 27.9999 19.3353 27.9999 16.7633C27.9999 14.3574 27.0417 12.6888 27.0417 12.6888L24.2828 13.4467L22.6074 17.9734L22.1929 18.5975L22.11 18.7106L21.9998 18.8522L21.8063 19.0783L21.5297 19.3619L20.0378 20.6087L16.3078 22.818L15.6873 26.5194V26.5194Z" fill="#34A853"/>
<path d="M11.8374 20.8673C12.7478 23.0003 14.5033 24.8754 15.691 26.5209L21.9997 18.8551C21.9997 18.8551 21.1109 20.0475 19.4987 20.0475C17.7029 20.0475 16.2521 18.5764 16.2521 16.7215C16.2521 15.4495 16.9981 14.5757 16.9981 14.5757L12.7156 15.7528L11.8374 20.8672V20.8673Z" fill="#FBBC04"/>
<path d="M22.0701 8.39421C24.1654 9.08719 25.9588 10.542 27.0435 12.6873L22.0016 18.8507C22.0016 18.8507 22.7476 17.961 22.7476 16.6969C22.7476 14.7988 21.1895 13.3809 19.5063 13.3809C17.9146 13.3809 17.0005 14.5713 17.0005 14.5713V10.6884L22.0701 8.39414V8.39421Z" fill="#4285F4"/>
<path d="M12.9932 11.1175C14.2446 9.58161 16.4466 8 19.4824 8C20.9553 8 22.065 8.39666 22.065 8.39666L16.9958 14.5747H13.4042L12.9932 11.1176V11.1175Z" fill="#1A73E8"/>
<path d="M11.8375 20.8673C11.8375 20.8673 11 19.1849 11 16.7475C11 14.4439 11.873 12.4303 12.9932 11.1175L16.9987 14.5752L11.8375 20.8673V20.8673Z" fill="#EA4335"/>
</svg>
