<svg xmlns="http://www.w3.org/2000/svg" width="394" height="394" viewBox="0 0 394 394">
  <g id="Gruppe_3" data-name="Gruppe 3" transform="translate(-1038 -57)">
    <circle id="Ellipse_7" data-name="Ellipse 7" cx="197" cy="197" r="197" transform="translate(1038 57)" fill="#38bdf8"/>
    <path id="Pfad_12" data-name="Pfad 12" d="M590.331,421.734a72.006,72.006,0,0,0,19.75-17.942c8.193-11.278,13.02-27.17,13.02-27.17s10.568,14.644,10.568,29.994S623.1,441.211,623.1,441.211Z" transform="translate(668.146 -248)" fill="#475569"/>
    <path id="Pfad_13" data-name="Pfad 13" d="M633.669,421.734a72.007,72.007,0,0,1-19.75-17.942c-8.193-11.278-13.02-27.17-13.02-27.17s-10.568,14.644-10.568,29.994S600.9,441.211,600.9,441.211Z" transform="translate(577.169 -248)" fill="#475569"/>
    <path id="Pfad_14" data-name="Pfad 14" d="M622,435.911a25.717,25.717,0,0,1,11.466-11.825c8.425-4.351,22.235-5.578,22.235-5.578s4.651,20.475-3.775,32.226S622,465.512,622,465.512Z" transform="translate(669.011 -240)" fill="#fed7aa"/>
    <path id="Pfad_15" data-name="Pfad 15" d="M656.98,435.911a25.717,25.717,0,0,0-11.466-11.825c-8.425-4.351-22.235-5.578-22.235-5.578s-4.651,20.475,3.775,32.226,29.927,14.779,29.927,14.779Z" transform="translate(519.52 -242)" fill="#fed7aa"/>
    <path id="Schnittmenge_5" data-name="Schnittmenge 5" d="M16.2,275.348c37.456-17.43,95.975-36.5,174.7-36.5,82.905,0,147.239,18.149,186.012,38.542A197.083,197.083,0,0,1,16.2,275.348Z" transform="translate(1038.107 57)" fill="#9aca42"/>
    <path id="Pfad_16" data-name="Pfad 16" d="M1269.99,494.8l7.963-102.988s-.937-20.2-12.348-31.818-15.582-10.987-33.3-14.65c-9.175-1.9-29.009-1.765-37.557,0-17.734,3.662-21.938,3.033-33.38,14.65s-12.39,31.818-12.39,31.818l8.052,102.988Z" transform="translate(21.531 -174.802)" fill="#fff"/>
    <rect id="Rechteck_2" data-name="Rechteck 2" width="134.315" height="64" rx="27" transform="translate(1167.5 304)" fill="#fed7aa"/>
    <path id="Schnittmenge_4" data-name="Schnittmenge 4" d="M55.825,81.528s.947-20.2,12.389-31.818,15.646-10.987,33.38-14.649a91.705,91.705,0,0,1,14.565-1.317A44.71,44.71,0,0,0,113.8,52.9c1.092,10.569,1.787,8.189,0,14.723s.068,12.684-7.153,11.414-8.594-5.083-15.757-5.083-2.941,9.58-8.037,16.8-7.322,3.188-12.343,12.092c-4.506,7.991-10.395,16.9-11.556,18.641Z" transform="translate(1114.54 135.426)" fill="#64748b"/>
    <circle id="Ellipse_9" data-name="Ellipse 9" cx="8.5" cy="8.5" r="8.5" transform="translate(1200 245)" fill="#475569"/>
    <circle id="Ellipse_10" data-name="Ellipse 10" cx="8.5" cy="8.5" r="8.5" transform="translate(1254 245)" fill="#475569"/>
    <circle id="Ellipse_11" data-name="Ellipse 11" cx="9.5" cy="9.5" r="9.5" transform="translate(1199 331)" fill="#fb923c"/>
    <circle id="Ellipse_12" data-name="Ellipse 12" cx="9.5" cy="9.5" r="9.5" transform="translate(1253 331)" fill="#fb923c"/>
    <path id="Pfad_20" data-name="Pfad 20" d="M130.765,144.566c0-20.058,12.1-36.317,36.315-36.317S203.4,124.508,203.4,144.566s-13.115,36.317-36.317,36.317S130.765,164.622,130.765,144.566Z" transform="translate(944.094 109.391)" fill="#84b340"/>
    <g id="Gruppe_1" data-name="Gruppe 1" transform="translate(1091.298 236.177)">
      <path id="Pfad_21" data-name="Pfad 21" d="M231.65,233.851l1.23-69.7a2.554,2.554,0,0,1,5.107,0l1.229,69.7C239.216,235.941,231.65,235.941,231.65,233.851Z" transform="translate(-213.033 -161.595)" fill="#49341b"/>
      <path id="Pfad_22" data-name="Pfad 22" d="M237.8,226.041a2.9,2.9,0,0,1-2.574-4.237l16.5-29.985a2.076,2.076,0,1,1,3.686,1.913l-15.027,30.741A2.907,2.907,0,0,1,237.8,226.041Z" transform="translate(-215.155 -180.585)" fill="#49341b"/>
      <path id="Pfad_23" data-name="Pfad 23" d="M199.625,233.743a3.37,3.37,0,0,1-2.817-1.513l-18.362-29.687a2.247,2.247,0,0,1,3.749-2.48l20.241,28.444a3.371,3.371,0,0,1-.952,4.674A3.335,3.335,0,0,1,199.625,233.743Z" transform="translate(-178.073 -186.039)" fill="#49341b"/>
    </g>
  </g>
</svg>
