<svg width="129" height="88" viewBox="0 0 129 88" fill="none" xmlns="http://www.w3.org/2000/svg">
<path d="M111.177 29.3797C110.824 29.3942 110.526 29.0975 110.51 28.7176L110.482 28.0304C110.467 27.6505 110.74 27.3305 111.093 27.316C111.446 27.3016 111.744 27.5983 111.76 27.9781L111.788 28.6654C111.803 29.0453 111.53 29.3653 111.177 29.3797Z" fill="#F6BB42"/>
<path d="M113.564 27.413C113.399 27.13 113.061 26.2172 112.943 24.7514C112.895 24.1427 112.415 23.1278 110.924 23.1888C109.434 23.2497 109.038 24.3005 109.039 24.9111C109.041 26.3816 108.779 27.3189 108.638 27.6144C108.534 27.8073 108.528 28.0357 108.615 28.2391C108.702 28.4434 108.881 28.5825 109.086 28.6236C109.15 28.6371 109.757 28.7485 111.149 28.6916C112.541 28.6346 113.136 28.4741 113.2 28.4553C113.4 28.3976 113.568 28.2445 113.638 28.0337C113.708 27.8239 113.683 27.5968 113.564 27.413Z" fill="#FFCE54"/>
<path d="M125.216 18.7496C124.365 17.4904 123.51 16.3302 123.165 15.867C123.176 15.5354 123.171 14.9482 123.07 14.157C122.972 13.3888 122.023 11.1051 120.999 9.17178C120.386 8.01593 119.804 7.08387 119.267 6.40032C118.503 5.43026 117.855 4.99046 117.227 5.01614C116.272 5.05521 115.382 5.82036 114.58 7.29246C114.298 7.80863 114.079 8.31928 113.931 8.69677C111.641 8.00515 103.058 5.53607 97.9346 5.74557C97.4967 5.76348 97.0882 5.80137 96.7208 5.85781C96.5462 5.8851 96.3901 5.98839 96.2896 6.14392C96.1891 6.29842 96.153 6.49266 96.1897 6.67896L101.035 31.2864C101.081 31.5217 101.239 31.7152 101.45 31.7962C101.528 31.8254 101.609 31.8382 101.688 31.835C101.825 31.8294 101.959 31.7765 102.068 31.6792L110.67 24.056C111.12 23.7973 111.608 23.5554 111.906 23.4372C114.275 27.08 119.44 27.1787 120.549 27.1565C121.13 27.5011 122.46 28.2291 123.251 28.1967C124.069 28.1633 125.971 27.5747 126.186 27.5074C126.352 27.4552 126.492 27.3324 126.571 27.1667C126.615 27.0771 127.639 24.9348 127.572 23.2953C127.55 22.7702 127.263 21.7776 125.216 18.7496Z" fill="#965353"/>
<path d="M118.9 14.5941C118.916 14.974 118.642 15.294 118.289 15.3085C117.936 15.3229 117.637 15.0263 117.622 14.6463C117.606 14.2665 117.88 13.9464 118.233 13.932C118.586 13.9176 118.885 14.2142 118.9 14.5941Z" fill="#434A54"/>
<path d="M126.888 21.4409C126.863 21.4035 126.846 21.3719 126.837 21.348L126.837 21.347C126.348 21.5194 125.124 22.6948 127.343 25.0396C127.492 24.4672 127.595 23.8524 127.572 23.2951C127.559 22.9728 127.446 22.4757 126.888 21.4409Z" fill="#434A54"/>
<path d="M125.544 4.95062C125.518 4.68827 125.355 4.46483 125.124 4.37432C124.894 4.2838 124.636 4.34281 124.46 4.52659C124.442 4.54552 122.538 6.51086 119.773 6.93984C119.156 7.03469 118.546 7.09596 117.958 7.11999C117.072 7.15622 116.39 7.10638 115.843 7.06622C115.483 7.03953 115.199 7.01884 114.95 7.02902C114.765 7.0366 114.615 7.06088 114.478 7.10485C113.917 7.28421 113.475 7.65156 113.203 8.16735C112.959 8.62648 112.872 9.17405 112.957 9.70761C113.135 10.8288 113.999 11.5817 115.058 11.5384C117.539 11.4369 119.629 11.0456 121.269 10.375C122.623 9.82204 123.682 9.07619 124.419 8.15788C124.939 7.5098 125.298 6.76434 125.459 6.00277C125.585 5.40925 125.549 4.99585 125.544 4.95062Z" fill="#CCD1D9"/>
<path d="M111.592 8.02433C110.829 7.81529 109.951 7.58468 109.005 7.35193L109.722 24.8953L110.67 24.0561C111.12 23.7974 111.608 23.5555 111.906 23.4373C112.012 23.6005 112.124 23.7563 112.241 23.906L111.592 8.02433Z" fill="#ED5564"/>
<path opacity="0.1" d="M116.914 26.7288C118.555 27.1492 120.018 27.1671 120.549 27.1565L121.116 26.4449L116.914 26.7288Z" fill="black"/>
<path d="M110.227 35.3329L104.644 31.4688L99.5241 9.15119C98.2958 3.79611 93.5305 0 88.036 0H30.4856C24.9915 0 20.2261 3.79611 18.9975 9.15119L13.8783 31.4691L8.29518 35.3331C4.6014 37.8894 2.39722 42.0957 2.39722 46.5876V66.673C2.39722 70.4035 5.4215 73.4278 9.15199 73.4278H109.37C113.1 73.4278 116.125 70.4035 116.125 66.673V46.5876C116.125 42.0954 113.921 37.8891 110.227 35.3329Z" fill="#34D399"/>
<path d="M98.1191 31.4682H20.4046L25.1974 10.5739C25.7669 8.09369 27.9407 6.35925 30.4875 6.35925H88.0362C90.5829 6.35925 92.7568 8.09369 93.3262 10.5739L98.1191 31.4682Z" fill="#76CDCE"/>
<path d="M11.4739 48.204C11.4739 53.1234 15.462 57.1115 20.3814 57.1115C25.3009 57.1115 29.2889 53.1234 29.2889 48.204H11.4739Z" fill="white"/>
<path d="M89.233 48.204C89.233 53.1234 93.2211 57.1115 98.1405 57.1115C103.06 57.1115 107.048 53.1234 107.048 48.204H89.233Z" fill="white"/>
<path d="M113.7 63.7844H4.82174C2.1588 63.7844 0 65.9432 0 68.6062C0 71.2691 2.1588 73.4279 4.82174 73.4279H113.7C116.363 73.4279 118.522 71.2691 118.522 68.6062C118.522 65.9432 116.363 63.7844 113.7 63.7844Z" fill="#CCCCCC"/>
<path d="M8.75287 73.4279V85.1978C8.75287 86.7455 10.0074 88 11.5551 88H22.2934C23.8411 88 25.0956 86.7455 25.0956 85.1978V73.4279" fill="#666666"/>
<path d="M93.4262 73.4279V85.1978C93.4262 86.7455 94.6808 88 96.2285 88H106.967C108.514 88 109.769 86.7455 109.769 85.1978V73.4279" fill="#666666"/>
<path d="M77.8944 73.4279V74.8544C77.8944 78.3193 75.0858 81.1279 71.6209 81.1279H51.2152C47.7504 81.1279 44.9418 78.3193 44.9418 74.8544V73.4279" fill="#4D4D4D"/>
<path d="M98.1189 31.4682H71.3623L46.2534 6.35925H88.036C90.5828 6.35925 92.7566 8.09369 93.3261 10.5739L98.1189 31.4682Z" fill="#96E0DE"/>
<path d="M82.2432 48.204H38.5931V51.6729H82.2432V48.204Z" fill="#037893"/>
<path d="M82.2432 54.0508H38.5931V57.5197H82.2432V54.0508Z" fill="#037893"/>
</svg>
